<?xml version="1.0" encoding="utf-8"?>
<svg viewBox="0 0 500 500" xmlns="http://www.w3.org/2000/svg">
  <path d="M 113.122 88.235 H 320.701 V 230.203 H 113.122 V 88.235 Z" style="stroke: rgb(0, 0, 0); fill: rgb(234, 125, 125);"/>
  <path style="stroke: rgb(0, 0, 0); fill: rgb(148, 95, 95);" d="M 414.027 328.054 L 321.267 88.801 L 320.136 230.769 L 412.33 333.145 L 229.638 333.71 L 113.688 229.072"/>
  <path d="M 58.395 374.926 L 58.395 376.818 L 31.819 376.818 L 31.819 374.926 L 36.087 374.926 L 36.087 346.062 L 56.591 346.062 L 56.547 350.902 L 41.279 350.902 L 41.279 359.35 L 54.919 359.35 L 54.919 364.146 L 41.279 364.146 L 41.279 374.926 Z M 101.646 374.926 L 101.646 376.818 L 92.186 376.818 L 92.186 352.794 L 81.45 374.134 L 78.546 374.134 L 67.854 352.794 L 67.854 376.818 L 58.394 376.818 L 58.394 374.926 L 62.662 374.926 L 62.662 346.062 L 70.758 346.062 L 80.042 365.378 L 89.326 346.062 L 97.378 346.062 L 97.378 374.926 Z M 113.693 374.926 L 113.693 376.818 L 101.637 376.818 L 101.637 374.926 Z M 146.832 374.926 L 146.832 376.818 L 137.328 376.818 L 129.98 366.478 L 123.16 366.478 L 123.16 376.818 L 113.7 376.818 L 113.7 374.926 L 117.968 374.926 L 117.968 346.062 L 129.408 346.062 Q 136.448 346.062 139.484 348.438 Q 142.52 350.814 142.52 356.05 Q 142.52 363.662 135.876 365.642 L 142.564 374.926 Z M 129.628 361.77 Q 134.028 361.77 135.612 360.406 Q 137.196 359.042 137.196 356.028 Q 137.196 353.014 135.568 351.892 Q 133.94 350.77 129.76 350.77 L 123.16 350.77 L 123.16 361.77 L 129.628 361.77 Z M 182.644 374.926 L 182.644 376.818 L 172.832 376.818 L 169.752 369.822 L 154.352 369.822 L 151.272 376.818 L 141.46 376.818 L 141.46 374.926 L 146.564 374.926 L 159.28 346.062 L 164.824 346.062 L 177.54 374.926 Z M 167.64 365.026 L 162.052 352.354 L 156.464 365.026 Z M 207.415 374.926 L 207.415 376.818 L 176.615 376.818 L 176.615 374.926 L 188.319 374.926 L 176.747 346.062 L 182.555 346.062 L 192.015 369.03 L 201.475 346.062 L 207.283 346.062 L 195.667 374.926 Z M 211.683 374.926 L 211.683 346.062 L 216.875 346.062 L 216.875 374.926 L 221.143 374.926 L 221.143 376.818 L 207.415 376.818 L 207.415 374.926 Z M 233.196 374.926 L 233.196 376.818 L 221.14 376.818 L 221.14 374.926 Z M 263.29 374.926 L 263.29 376.818 L 233.194 376.818 L 233.194 374.926 L 237.462 374.926 L 237.462 346.062 L 248.022 346.062 Q 255.018 346.062 258.23 348.746 Q 261.442 351.43 261.442 357.018 Q 261.442 362.606 258.164 365.202 Q 254.886 367.798 248.11 367.798 L 242.654 367.798 L 242.654 374.926 Z M 248.682 363.09 Q 252.994 363.09 254.556 361.44 Q 256.118 359.79 256.118 356.6 Q 256.118 353.41 254.138 352.09 Q 252.158 350.77 247.934 350.77 L 242.654 350.77 L 242.654 363.09 L 248.682 363.09 Z M 296.427 374.926 L 296.427 376.818 L 286.923 376.818 L 279.575 366.478 L 272.755 366.478 L 272.755 376.818 L 263.295 376.818 L 263.295 374.926 L 267.563 374.926 L 267.563 346.062 L 279.003 346.062 Q 286.043 346.062 289.079 348.438 Q 292.115 350.814 292.115 356.05 Q 292.115 363.662 285.471 365.642 L 292.159 374.926 Z M 279.223 361.77 Q 283.623 361.77 285.207 360.406 Q 286.791 359.042 286.791 356.028 Q 286.791 353.014 285.163 351.892 Q 283.535 350.77 279.355 350.77 L 272.755 350.77 L 272.755 361.77 L 279.223 361.77 Z M 299.591 374.926 L 299.591 346.062 L 321.195 346.062 L 321.195 350.946 L 304.783 350.946 L 304.783 359.086 L 319.523 359.086 L 319.523 363.706 L 304.783 363.706 L 304.783 371.934 L 321.723 371.934 L 321.723 374.926 L 325.991 374.926 L 325.991 376.818 L 295.323 376.818 L 295.323 374.926 Z M 351.818 374.926 L 351.818 376.818 L 324.098 376.818 L 324.098 374.926 L 329.73 374.926 Q 327.618 373.826 325.858 372.198 L 329.114 368.282 Q 333.778 372.33 338.794 372.33 Q 341.302 372.33 342.776 371.252 Q 344.25 370.174 344.25 368.392 Q 344.25 366.61 342.864 365.62 Q 341.478 364.63 338.09 363.816 Q 334.702 363.002 332.942 362.32 Q 331.182 361.638 329.818 360.538 Q 327.09 358.47 327.09 354.202 Q 327.09 349.934 330.192 347.624 Q 333.294 345.314 337.87 345.314 Q 340.818 345.314 343.722 346.282 Q 346.626 347.25 348.738 349.01 L 345.966 352.926 Q 344.602 351.694 342.27 350.902 Q 339.938 350.11 337.672 350.11 Q 335.406 350.11 333.954 351.034 Q 332.502 351.958 332.502 353.828 Q 332.502 355.698 333.954 356.688 Q 335.406 357.678 340.136 358.822 Q 344.866 359.966 347.264 362.034 Q 349.662 364.102 349.662 367.842 Q 349.662 372.374 346.318 374.926 Z M 356.09 374.926 L 356.09 346.062 L 377.694 346.062 L 377.694 350.946 L 361.282 350.946 L 361.282 359.086 L 376.022 359.086 L 376.022 363.706 L 361.282 363.706 L 361.282 371.934 L 378.222 371.934 L 378.222 374.926 L 382.49 374.926 L 382.49 376.818 L 351.822 376.818 L 351.822 374.926 Z M 384.866 374.926 L 384.866 346.062 L 390.058 346.062 L 407.922 369.03 L 407.922 346.062 L 413.114 346.062 L 413.114 374.926 L 417.382 374.926 L 417.382 376.818 L 407.482 376.818 L 390.058 354.378 L 390.058 376.818 L 380.598 376.818 L 380.598 374.926 Z M 443.956 374.926 L 443.956 376.818 L 417.38 376.818 L 417.38 374.926 L 428.072 374.926 L 428.072 350.814 L 418.744 350.814 L 418.744 346.062 L 442.592 346.062 L 442.592 350.814 L 433.264 350.814 L 433.264 374.926 Z M 471.675 374.926 L 471.675 376.818 L 443.955 376.818 L 443.955 374.926 L 449.587 374.926 Q 447.475 373.826 445.715 372.198 L 448.971 368.282 Q 453.635 372.33 458.651 372.33 Q 461.159 372.33 462.633 371.252 Q 464.107 370.174 464.107 368.392 Q 464.107 366.61 462.721 365.62 Q 461.335 364.63 457.947 363.816 Q 454.559 363.002 452.799 362.32 Q 451.039 361.638 449.675 360.538 Q 446.947 358.47 446.947 354.202 Q 446.947 349.934 450.049 347.624 Q 453.151 345.314 457.727 345.314 Q 460.675 345.314 463.579 346.282 Q 466.483 347.25 468.595 349.01 L 465.823 352.926 Q 464.459 351.694 462.127 350.902 Q 459.795 350.11 457.529 350.11 Q 455.263 350.11 453.811 351.034 Q 452.359 351.958 452.359 353.828 Q 452.359 355.698 453.811 356.688 Q 455.263 357.678 459.993 358.822 Q 464.723 359.966 467.121 362.034 Q 469.519 364.102 469.519 367.842 Q 469.519 372.374 466.175 374.926 Z" style="fill: rgb(51, 51, 51); white-space: pre;"/>
</svg>